<?xml version="1.0" encoding="utf-8"?>
<!-- Svg Vector Icons : http://www.onlinewebfonts.com/icon -->
<!DOCTYPE svg PUBLIC "-//W3C//DTD SVG 1.1//EN" "http://www.w3.org/Graphics/SVG/1.1/DTD/svg11.dtd">
<svg version="1.1" xmlns="http://www.w3.org/2000/svg" xmlns:xlink="http://www.w3.org/1999/xlink" x="0px" y="0px" viewBox="0 0 1000 1000" enable-background="new 0 0 1000 1000" xml:space="preserve">
<metadata> Svg Vector Icons : http://www.onlinewebfonts.com/icon </metadata>
<g><g transform="translate(0.000000,511.000000) scale(0.100000,-0.100000)"><path d="M4980,4528.7c-694-200.6-2075.9-599.7-3068.8-884.5S104,3124.6,100,3122.6c-4-4,347-1231.5,778.2-2729.8c431.2-1500.3,830.4-2888.2,886.5-3086.8c56.2-198.6,104.3-363,108.3-367c2-4,6165.6,1761,6181.6,1773c14,10-1773,6185.6-1791.1,6183.6C6253.6,4893.7,5675.9,4729.2,4980,4528.7z M5880.5,4121.5c6-20.1,160.5-559.6,343-1199.4c184.5-639.8,405.2-1410,493.4-1712.9c86.3-302.9,154.4-555.6,148.4-559.6c-6-6-166.5,142.4-355,330.9c-369,361-449.3,417.2-517.5,357c-20.1-18.1-52.2-78.2-70.2-130.4c-48.1-146.4-132.4-208.6-308.9-232.7c-94.3-12-108.3-20.1-140.4-86.2c-22.1-40.1-70.2-198.6-110.3-353c-74.2-288.8-154.5-483.4-280.8-679.9c-40.1-62.2-64.2-112.3-56.2-112.3s449.3,124.4,982.8,278.8l966.8,278.8l48.1-164.5c28.1-88.2,52.1-180.5,56.2-202.6c6-36.1-208.6-100.3-2481.1-756.1c-1367.9-393.1-2497.1-716.1-2511.2-718.1c-24.1,0-126.4,296.9-126.4,365.1c0,22.1,34.1,42.1,106.3,64.2c1751,503.4,2503.1,720.1,2555.3,736.1c50.1,16,92.3,64.2,202.6,234.7c192.5,296.8,238.7,393.1,306.9,659.9l60.2,228.6l-96.3,84.2c-52.1,44.1-326.9,308.9-607.7,587.7c-537.5,531.5-659.9,629.8-782.2,629.8c-94.3,0-130.4-40.1-194.6-214.6c-98.3-272.8-216.6-369-507.4-411.2c-146.4-20.1-168.5-30.1-210.6-84.2c-58.2-78.2-108.3-222.6-200.6-593.7c-98.3-395.1-176.5-625.8-280.8-828.3c-84.2-162.5-349-593.7-425.2-690c-36.1-44.1-48.1-2-541.5,1714.9c-278.8,966.8-503.4,1761-499.4,1763c6,6,4982.2,1444.1,5010.3,1448.1C5864.5,4155.6,5874.5,4139.5,5880.5,4121.5z"/><path d="M1744.7,2539c-379.1-188.5-381.1-718-2-910.6c274.8-142.4,623.8,12,712,310.9C2577.1,2364.5,2137.8,2735.5,1744.7,2539z"/><path d="M7156.2,3319.2c0-10,38.1-146.4,86.2-306.9l84.3-290.8l415.2-30.1c226.6-16,419.2-34.1,423.2-40.1c6-6-28.1-523.5-74.2-1153.3l-84.2-1143.3l230.7-806.3c128.4-445.3,236.7-808.3,242.7-808.3c12,0,343,4456.7,330.9,4468.7c-6,8-1512.3,124.4-1608.6,124.4C7176.2,3333.2,7156.2,3327.2,7156.2,3319.2z"/><path d="M9063.6,1082.8c-18-240.7-18-326.9,0-337c16.1-12,16.1-28.1-4-62.2c-16.1-30.1-46.2-308.9-80.2-770.2c-30.1-397.1-52.2-724.1-48.1-728c2-2,222.6,399.1,489.4,890.5C9687.4,569.4,9902,974.5,9900,976.5c-14,10-798.3,431.2-804.3,431.2C9091.7,1407.7,9077.6,1261.3,9063.6,1082.8z"/><path d="M6229.5-2228.6c-1231.5-355-2236.4-647.9-2234.4-649.9c10-12,4334.4-325,4342.4-314.9c6,6,36.1,343,66.2,750.1c40.1,549.6,62.2,756.2,86.2,800.3c24.1,46.2,24.1,62.2,6,60.2C8481.9-1582.8,7463-1873.6,6229.5-2228.6z"/><path d="M4310-3313.7c32.1-34.1,2535.2-1375.9,2541.3-1361.9c2,8,140.4,264.7,304.9,567.6l298.9,551.6l-74.2,14.1c-40.1,8-706,60.2-1478.2,116.3c-772.2,56.2-1448.1,106.3-1504.3,112.3C4344.1-3305.7,4304-3307.7,4310-3313.7z"/></g></g>
</svg>